<?xml version="1.0" encoding="utf-8"?><svg width="127" height="104" viewBox="0 0 127 104" xmlns="http://www.w3.org/2000/svg" xmlns:xlink="http://www.w3.org/1999/xlink"><view id="COMMERCE_SOLUTION" viewBox="0 0 26 26"/><svg width="26" height="26" viewBox="-1 -1 26 26" xmlns="http://www.w3.org/2000/svg"><g stroke="#FFF" fill="none" fill-rule="evenodd" stroke-linejoin="round"><path d="M8.118 9.736v4.41l8.82 5.118-4.41 2.598a1.14 1.14 0 0 1-1.22 0l-3.86-2.204-3.818-2.205c-.394-.236-.63-.63-.63-1.063v-3.7"/><path d="M11.937 16.469 20.6 11.31c.078-.04.196 0 .196.118v4.922c0 .433-.236.826-.63 1.063l-3.385 1.929M11.898 7.65l3.854 2.012c.125.065.275.06.395-.012l4.41-2.653a.162.162 0 0 0-.005-.28l-8.103-4.54c-.354-.236-.827-.236-1.22 0l-3.82 2.205-3.818 2.205A1.29 1.29 0 0 0 3 7.65v5.118l8.898-5.118z"/></g></svg><view id="CUSTOM_CENTER" viewBox="26 0 26 26"/><svg width="26" height="26" viewBox="-1 -1 26 26" x="26" xmlns="http://www.w3.org/2000/svg"><g fill="none" fill-rule="evenodd"><path d="M0 0h24v24H0z"/><path stroke="#FFF" stroke-linejoin="round" d="M11.194 7.24H4.8v7.027h2.118V18.4h3.388v-4.133h1.038c2.968.413 5.738 1.929 7.856 3.935V4c-2.118 2.104-4.844 3.24-8.006 3.24z"/></g></svg><view id="CUSTOM_PROD" viewBox="0 26 26 26"/><svg width="26" height="26" viewBox="-1 -1 26 26" y="26" xmlns="http://www.w3.org/2000/svg"><g fill="none" fill-rule="evenodd"><path d="M0 0h24v24H0z"/><path stroke="#FFF" stroke-linejoin="round" d="M22.4 10.012c0-4.093-3.134-7.45-7.134-7.812l-5.757.002C5.52 2.576 2.4 5.928 2.4 10.012c0 4.188 3.282 7.6 7.413 7.826l2.576 4.223 2.574-4.223c4.142-.213 7.437-3.63 7.437-7.826z"/><text fill="#FFF" font-family="Helvetica" font-size="12" transform="translate(2.4 2.2)">
            <tspan x="6.522" y="12.591">?</tspan>
        </text></g></svg><view id="CUSTOM_TALK" viewBox="26 26 26 26"/><svg width="26" height="26" viewBox="-1 -1 26 26" x="26" y="26" xmlns="http://www.w3.org/2000/svg"><g fill="none" fill-rule="evenodd"><path d="M0 0h24v24H0z"/><path fill="#FFF" d="M16.438 10.96V8.625a.952.952 0 1 0-1.904 0v2.335a.952.952 0 1 0 1.904 0zm-6.65 0V8.625a.952.952 0 1 0-1.905 0v2.335a.952.952 0 0 0 1.904 0zm-4.669 8.218 1.174-1.28a5.527 5.527 0 0 1 4.063-1.786h7.76c.807 0 1.464-.657 1.464-1.463V5.205c0-.807-.657-1.463-1.464-1.463H6.206c-.808 0-1.464.656-1.464 1.463v13.827a.217.217 0 0 0 .377.146zm-.691.651A.959.959 0 0 1 4 19.032V5.205C4 3.987 4.987 3 6.206 3h11.91c.538 0 1.03.194 1.413.514l1.276.959a2.2 2.2 0 0 1 .83 1.72v9.444a2.205 2.205 0 0 1-2.206 2.205h-7.737a4.943 4.943 0 0 0-3.642 1.6l-1.07 1.17a.944.944 0 0 1-1.275.12l-1.276-.902z"/></g></svg><view id="ETC" viewBox="52 0 26 26"/><svg width="26" height="26" viewBox="-1 -1 26 26" x="52" xmlns="http://www.w3.org/2000/svg"><g fill="none" fill-rule="evenodd"><path d="M0 0h24v24H0z"/><g stroke="#FFF" transform="translate(2.2 9.6)"><circle cx="2.4" cy="2.4" r="2.4"/><circle cx="9.6" cy="2.4" r="2.4"/><circle cx="16.8" cy="2.4" r="2.4"/></g></g></svg><view id="EVENT" viewBox="52 26 26 26"/><svg width="26" height="26" viewBox="-1 -1 26 26" x="52" y="26" xmlns="http://www.w3.org/2000/svg"><path d="M4.5 4.5h6v6h-6zM17 9.463l-2.939 1.582.596-3.284-2.412-2.306 3.307-.448L17 2l1.448 3.007 3.307.448-2.412 2.306.596 3.284zM4.5 13.5h6v6h-6zm9 0h6v6h-6z" fill="none" fill-rule="evenodd" stroke="#FFF"/></svg><view id="FREE" viewBox="0 52 26 26"/><svg width="26" height="26" viewBox="-1 -1 26 26" y="52" xmlns="http://www.w3.org/2000/svg"><g fill="none" fill-rule="evenodd" stroke="#FFF"><path d="M4.5 6.15h15.96v12.78H4.5z"/><path stroke-linecap="square" d="M12.48 6.71v11.66M5.06 9.466H19.9M6.65 5.65 9.3 3l2.12 2.65m1.59 0L15.66 3l2.12 2.65"/></g></svg><view id="JUDGMENT" viewBox="26 52 26 26"/><svg width="26" height="26" viewBox="-1 -1 26 26" x="26" y="52" xmlns="http://www.w3.org/2000/svg"><defs><path id="ha" d="M0 0h24v24H0z"/></defs><g fill="none" fill-rule="evenodd"><mask id="hb" fill="#fff"><use xlink:href="#ha"/></mask><g stroke="#FFF" mask="url(#hb)"><path stroke-width=".8" d="M18.147 19.834 5.71 19.84c-.943 0-1.71-.862-1.71-1.922V4.008L16.516 4v7.844"/><path d="M6.379 7.963H14.2m-7.821 3.538H14.2m-7.821 3.511h4.693"/><path stroke-linecap="round" stroke-linejoin="round" d="M16.537 11.04v6.543c0 1.224.867 2.214 1.946 2.25v.007h.74c1.108 0 2.007-1.01 2.007-2.257V11.04h-4.693z"/></g></g></svg><view id="LOGISTICS_INTERLOCK" viewBox="52 52 26 26"/><svg width="26" height="26" viewBox="-1 -1 26 26" x="52" y="52" xmlns="http://www.w3.org/2000/svg"><g transform="translate(3 1.5)" stroke="#FFF" fill="none" fill-rule="evenodd"><path d="m8.643.658 8.732 4.878a.25.25 0 0 1 .125.217V17.25a.25.25 0 0 1-.25.25h-3a.25.25 0 0 1-.25-.25v-6.227a1.246 1.246 0 0 0-1.25-1.25h-7.5A1.246 1.246 0 0 0 4 11.023v6.227a.25.25 0 0 1-.25.25h-3a.25.25 0 0 1-.25-.25V5.741a.25.25 0 0 1 .12-.213L8.643.658z"/><rect x="7.25" y="13.94" width="3.5" height="3.56" rx=".75"/><path stroke-linecap="round" d="M6.75 6.316h4.263"/></g></svg><view id="ORDER" viewBox="78 0 26 26"/><svg width="26" height="26" viewBox="-1 -1 26 26" x="78" xmlns="http://www.w3.org/2000/svg"><g fill="none" fill-rule="evenodd"><path d="M0 0h24v24H0z"/><g stroke="#FFF"><path d="M4.8 4H20v16.8H4.8z"/><path stroke-linecap="square" d="M10.344 7.8h6.4m-6.4 4h6.4m-6.4 4h6.4m-8.8-8h.4m-.4 4h.4m-.4 4h.4"/></g></g></svg><view id="PRICE" viewBox="78 26 26 26"/><svg width="26" height="26" viewBox="-1 -1 26 26" x="78" y="26" xmlns="http://www.w3.org/2000/svg"><g fill="none" fill-rule="evenodd"><path d="M0 0h24v24H0z"/><g stroke="#FFF" transform="translate(3 14)"><path stroke-linecap="square" d="m3 3 2.5 3.124L10 5m5 0 2.9 1.5"/><circle cx="12.5" cy="4.5" r="1.5"/><circle cx="1.5" cy="1.5" r="1.5"/></g><g transform="translate(10 2)"><text fill="#FFF" font-family="AppleSDGothicNeo-Regular, Apple SD Gothic Neo" font-size="9" transform="translate(2.2 1.3)">
                <tspan x="0" y="8">W</tspan>
            </text><path stroke="#FFF" stroke-linecap="square" stroke-width=".95" d="M2.35 5.377h7"/><circle cx="6" cy="6" r="6" stroke="#FFF" stroke-width=".95"/></g></g></svg><view id="PROD_QNA" viewBox="78 52 26 26"/><svg width="26" height="26" viewBox="-1 -1 26 26" x="78" y="52" xmlns="http://www.w3.org/2000/svg"><g fill="none" fill-rule="evenodd" stroke="#FFF"><path d="M3.5 7.207V18.5h18V7.207L17.793 3.5H7.207L3.5 7.207z"/><path stroke-linecap="square" d="M3.5 7.5h17.683M12.5 4v3"/><path d="M8.5 10.5h8v3h-8z"/></g></svg><view id="REGULAR_DELIVERY" viewBox="0 78 26 26"/><svg width="26" height="26" viewBox="-1 -1 26 26" y="78" xmlns="http://www.w3.org/2000/svg"><g stroke="#FFF" fill="none" fill-rule="evenodd"><g transform="translate(13.57 12.636)"><ellipse cx="4.715" cy="4.682" rx="4.715" ry="4.682"/><path stroke-linecap="round" stroke-linejoin="round" d="M4.063 2.632v2.045m0 0h2.051"/></g><g stroke-linecap="round"><path d="M10.481 18.846h-4.39a3.091 3.091 0 0 1-3.09-3.091v-8.13a3.091 3.091 0 0 1 3.09-3.091H16.48a3.093 3.093 0 0 1 3.09 2.983l.115 3.327h0"/><path stroke-linejoin="round" d="M7.375 3v2.72M14.937 3v2.72M3.272 9.134h16.172"/></g></g></svg><view id="REVIEW" viewBox="104 36 19 19"/><svg width="19" height="19" viewBox="-1 -1 19 19" x="104" y="36" xmlns="http://www.w3.org/2000/svg"><g fill="none" fill-rule="evenodd" stroke="#FFF"><path d="M.667.5v13h4.91L8.5 16.307l2.924-2.807h4.91V.5H.666z"/><path stroke-linecap="square" d="M4.854 4.5h6.771m-6.771 4h6.771"/></g></svg><view id="SALE_TIP" viewBox="104 0 23 15"/><svg width="23" height="15" viewBox="-1 -1 23 15" x="104" xmlns="http://www.w3.org/2000/svg"><g fill="none" fill-rule="evenodd" stroke="#FFF" transform="translate(-2 -5)"><rect width="20" height="12" x="2.5" y="5.5" rx="2"/><path stroke-linecap="square" d="M6.15 8.35h4.77m-2.385 0v6.15m4-6.15v6.15m3-6.15v6.15"/><path d="M15.5 8.5v3H18a.5.5 0 0 0 .5-.5V9a.5.5 0 0 0-.5-.5h-2.5z"/></g></svg><view id="SELL" viewBox="26 78 26 26"/><svg width="26" height="26" viewBox="-1 -1 26 26" x="26" y="78" xmlns="http://www.w3.org/2000/svg"><g fill="none" fill-rule="evenodd"><path d="M0 0h24v24H0z"/><g stroke="#FFF" stroke-linecap="square"><path d="m7.6 14.8 4-4.4 2.8 2.4 4-4.8"/><path d="M5.2 5.6v13.6H20"/></g></g></svg><view id="TODAY" viewBox="78 78 25 17"/><svg width="25" height="17" viewBox="-1 -1 25 17" x="78" y="78" xmlns="http://www.w3.org/2000/svg"><g fill="none" fill-rule="evenodd" stroke="#FFF" transform="translate(-1 -4)"><path d="M14.247 15.716H9.654V5h11.482"/><path stroke-linecap="square" d="M19.222 15.716h1.914M14.63 10.74h6.123M15.63 8.21h7.654"/><circle cx="16.543" cy="16.482" r="1.531"/><circle cx="6.593" cy="16.482" r="1.531"/><path d="M3.53 15.716H2v-4.592L4.296 6.53h3.828"/></g></svg><view id="WINDOW" viewBox="52 78 26 26"/><svg width="26" height="26" viewBox="-1 -1 26 26" x="52" y="78" xmlns="http://www.w3.org/2000/svg"><g fill="none" fill-rule="evenodd" stroke="#FFF"><path d="M20 11.287v5.299a1 1 0 0 1-.293.707l-2.414 2.414a1 1 0 0 1-.707.293H6a1 1 0 0 1-1-1V4a1 1 0 0 1 1-1h8.446a1 1 0 0 1 .848.47"/><path stroke-linecap="square" d="M20 16h-4v4M9 7.5h4m-4 6h4m4-7.887L19.083 8 22 4M9 10.5h6"/></g></svg><view id="alarm" viewBox="104 15 20 21"/><svg width="20" height="21" viewBox="-1 -1 20 21" x="104" y="15" xmlns="http://www.w3.org/2000/svg"><path d="M11.952 15.091c-.221 1.419-1.407 2.501-2.838 2.501-1.419 0-2.598-1.066-2.833-2.468m10.392-.902-1.303-3.484V7.63c0-3.661-2.863-6.627-6.395-6.627-3.53 0-6.392 2.966-6.392 6.627v3.11L1.28 14.223h15.394z" fill="none" fill-rule="evenodd" stroke="#FFF"/></svg><view id="alarm-new" viewBox="104 55 16 16"/><svg width="16" height="16" viewBox="-1 -1 16 16" x="104" y="55" xmlns="http://www.w3.org/2000/svg"><g transform="translate(1 1)" fill="none" fill-rule="evenodd"><circle stroke="#2D3539" fill="#FF545C" cx="6" cy="6" r="6.5"/><text transform="translate(3 1)" fill="#FFF" font-family="Helvetica-Bold, Helvetica" font-size="8" font-weight="bold">
                            <tspan x="0" y="8">N</tspan>
                        </text></g></svg></svg>