<?xml version="1.0" encoding="UTF-8"?><svg width="81" height="73" viewBox="0 0 81 73" xmlns="http://www.w3.org/2000/svg" xmlns:xlink="http://www.w3.org/1999/xlink"><view id="analysis" viewBox="48 50 22 21"/><svg width="22" height="21" viewBox="-1 -1 22 21" x="48" y="50" xmlns="http://www.w3.org/2000/svg"><g stroke="#FFF" fill="none" fill-rule="evenodd"><path d="M.5.5h19v14H.5z"/><path stroke-linecap="square" d="m3.5 10 5-5L12 9l4-4M10 15v3M5.5 18h9"/></g></svg><view id="d-commerce" viewBox="26 50 22 23"/><svg width="22" height="23" viewBox="-1 -1 22 23" x="26" y="50" xmlns="http://www.w3.org/2000/svg"><defs><path id="ba" d="m.473 0 6.521.06a8.1 8.1 0 0 1 8.025 8.1v1.835a8.1 8.1 0 0 1-8.1 8.1H.473V0z"/></defs><g fill="none" fill-rule="evenodd"><g transform="translate(.468 1.695)"><mask id="bb" fill="#fff"><use xlink:href="#ba"/></mask><path stroke="#FFF" d="m-1.89 3.214 4.535.01.01 4.535 16.331.337" mask="url(#bb)" transform="rotate(-45 8.548 5.655)"/></g><path stroke="#FFF" d="M6.337 13.004 18.5 1.694m-18-.189V18.5h6.4a7.6 7.6 0 0 0 7.6-7.6V9.162a7.6 7.6 0 0 0-7.532-7.6L.5 1.506zm13-.005h5v5"/></g></svg><view id="data-lab" viewBox="0 0 54 12"/><svg width="54" height="12" viewBox="-1 -1 54 12" xmlns="http://www.w3.org/2000/svg"><path d="M2.728 9.117c3.051 0 4.92-1.468 4.92-4.711C7.649 1.774 6.295 0 3.015 0H0v9.117h2.728zm-.42-1.106h-1.03V1.106H2.86c2.766 0 3.51 1.374 3.51 3.3 0 2.537-1.164 3.605-4.063 3.605zm8.845 1.297c1.03 0 1.87-.362 2.366-.916 0 .286 1.163-.152 1.163-.82V4.215c0-1.24-1.392-1.85-2.804-1.85-1.068 0-1.888.267-2.498.668v1.106c.896-.553 1.678-.725 2.441-.725.858 0 1.64.21 1.64.858 0 1.336-4.787.039-4.787 2.862 0 1.583 1.182 2.174 2.48 2.174zm.134-1.05c-.668 0-1.412-.209-1.412-1.086 0-1.43 2.862-.935 3.586-1.564v1.258c0 .725-1.106 1.393-2.174 1.393zm7.339.993c.4 0 .877-.038 1.487-.21V7.973c-.59.171-1.03.248-1.392.248-.649 0-.877-.305-.877-1.05v-3.68h1.907V2.46h-1.907V.495h-1.221V2.46h-.954v1.03h.954v3.834c0 1.183.534 1.927 2.003 1.927zm4.382.057c1.03 0 1.87-.362 2.365-.916 0 .286 1.164-.152 1.164-.82V4.215c0-1.24-1.393-1.85-2.804-1.85-1.068 0-1.889.267-2.499.668v1.106c.897-.553 1.679-.725 2.441-.725.859 0 1.64.21 1.64.858 0 1.336-4.787.039-4.787 2.862 0 1.583 1.183 2.174 2.48 2.174zm.133-1.05c-.667 0-1.411-.209-1.411-1.086 0-1.43 2.861-.935 3.586-1.564v1.258c0 .725-1.106 1.393-2.175 1.393zm10.734.86V8.01h-4.177V0H28.42v9.117h5.455zm3.047.19c1.03 0 1.87-.362 2.365-.916 0 .286 1.164-.152 1.164-.82V4.215c0-1.24-1.392-1.85-2.804-1.85-1.068 0-1.888.267-2.498.668v1.106c.896-.553 1.678-.725 2.44-.725.86 0 1.641.21 1.641.858 0 1.336-4.787.039-4.787 2.862 0 1.583 1.182 2.174 2.48 2.174zm.134-1.05c-.668 0-1.412-.209-1.412-1.086 0-1.43 2.861-.935 3.586-1.564v1.258c0 .725-1.106 1.393-2.174 1.393zm7.663 1.05c2.231 0 3.567-1.22 3.567-3.586 0-2.25-1.24-3.357-3.205-3.357-.782 0-1.373.19-1.774.343V0h-1.22v8.793c.744.343 1.697.515 2.632.515zm0-1.05a5.82 5.82 0 0 1-1.412-.17V3.814c.363-.191.916-.4 1.698-.4 1.316 0 2.079.857 2.079 2.269 0 1.717-.877 2.575-2.365 2.575zm5.794.86a.896.896 0 0 0 .896-.897.9.9 0 0 0-.896-.916c-.496 0-.916.4-.916.916 0 .496.42.896.916.896z" fill="#999"/></svg><view id="download" viewBox="54 19 24 26"/><svg width="24" height="26" viewBox="-1 -1 24 26" x="54" y="19" xmlns="http://www.w3.org/2000/svg"><g stroke="#FFF" fill="none" fill-rule="evenodd"><path d="M11 21H1V1h17v9"/><path d="M4.5 1v20M7.5 6.5h7M7.5 8.5h7" stroke-linecap="square"/><path d="M18.5 13.5h-4V18h-1.883l3.883 4.668L20.383 18H18.5v-4.5Z"/></g></svg><view id="partner" viewBox="0 50 26 23"/><svg width="26" height="23" viewBox="-1 -1 26 23" y="50" xmlns="http://www.w3.org/2000/svg"><g stroke="#FFF" fill="none" fill-rule="evenodd"><path d="M16.72 20.073h6.73V14.84l.002-.032c0-.012-.003-.022-.003-.033v-.064l-.005-.005a1.196 1.196 0 0 0-.572-.926l-.007-.009-5.121-2.957v-1.06a3.788 3.788 0 0 0 1.612-3.106V4.786C19.356 2.696 17.67 1 15.591 1a3.76 3.76 0 0 0-3.253 1.879"/><path d="m16.722 14.807-.002-.034v-.063l-.003-.006a1.201 1.201 0 0 0-.573-.925l-.008-.009-5.122-2.957v-1.06a3.786 3.786 0 0 0 1.614-3.106V4.786C12.628 2.695 10.942 1 8.862 1 6.783 1 5.097 2.695 5.097 4.786v1.86c0 1.288.639 2.422 1.614 3.107v1.06l-5.117 2.953-.005.007c-.351.21-.589.594-.589 1.034 0 .03.003.06.005.09v5.176H16.72v-5.234l.002-.032Z"/></g></svg><view id="search-ad" viewBox="54 0 27 19"/><svg width="27" height="19" viewBox="-1 -1 27 19" x="54" xmlns="http://www.w3.org/2000/svg"><g transform="translate(1 1)" stroke="#FFF" fill="none" fill-rule="evenodd"><path d="M9 10H0V0h19v4"/><circle cx="16" cy="8" r="5"/><path d="m20 12.5 2.828 2.828" stroke-linecap="square"/></g></svg><view id="sme" viewBox="0 12 38 38"/><svg width="38" height="38" viewBox="-1 -1 38 38" y="12" xmlns="http://www.w3.org/2000/svg"><g transform="translate(4 4)" fill="none" fill-rule="evenodd"><path stroke="#FFF" d="M12.578 2.587c.076.268.209.5.378.687.302.332.725.526 1.194.526a1.648 1.648 0 0 0 1.557-1.101c2.54.342 4.81 1.533 6.524 3.28a11.407 11.407 0 0 1 3.193 6.69 1.648 1.648 0 0 0-.037 2.944 11.47 11.47 0 0 1-3.364 6.626 11.466 11.466 0 0 1-6.236 3.123c.013-.668-.172-1.08-.47-1.379a1.648 1.648 0 0 0-2.334 0 1.648 1.648 0 0 0-.483 1.167c-2.454-.062-4.682-1.166-6.405-2.798a11.468 11.468 0 0 1-3.468-6.637c.255-.078.477-.21.658-.378.323-.3.515-.721.515-1.187a1.648 1.648 0 0 0-1.114-1.561 11.144 11.144 0 0 1 3.186-6.711 11.387 11.387 0 0 1 6.706-3.291z"/><path d="M19.5 8.5v11h-11v-11h11zm-6.374 2.982H11.25v5.036h1.85V13.91l1.774 2.607h1.876v-5.035h-1.849v2.606l-1.775-2.606z" fill="#FFF"/><circle cx="14.131" cy="2.131" r="1.631" stroke="#FFF"/><circle cx="14.131" cy="25.131" r="1.631" stroke="#FFF"/><circle cx="26.131" cy="14.131" r="1.631" stroke="#FFF"/><circle cx="2.131" cy="14.131" r="1.631" stroke="#FFF"/></g></svg></svg>